<?xml version="1.0" encoding="utf-8"?>
<!-- Generator: Adobe Illustrator 26.0.1, SVG Export Plug-In . SVG Version: 6.00 Build 0)  -->
<svg version="1.1" id="Layer_1" xmlns="http://www.w3.org/2000/svg" xmlns:xlink="http://www.w3.org/1999/xlink" x="0px" y="0px"
	 viewBox="0 0 1000 1000" style="enable-background:new 0 0 1000 1000;" xml:space="preserve">
<style type="text/css">
	.st0{fill:url(#SVGID_1_);}
	.st1{fill:url(#SVGID_00000147936906702183243190000002274601083492366481_);}
	.st2{fill:url(#SVGID_00000029011948082433834350000016169353925070249402_);}
	.st3{fill:url(#SVGID_00000035513523646652344160000001921897710867449991_);}
	.st4{fill:url(#SVGID_00000183233416727235807600000008778880247758019241_);}
	.st5{fill:url(#SVGID_00000085222426509849886920000006873726746745593514_);}
	.st6{fill:url(#SVGID_00000047039556480081192180000009585243006233168552_);}
	.st7{fill:url(#SVGID_00000129900797456025179480000008541063678175930011_);}
	.st8{fill:url(#SVGID_00000088850073964214917370000000462654867005438852_);}
	.st9{fill:url(#SVGID_00000102543005415966720670000005772085233067164573_);}
	.st10{fill:url(#SVGID_00000096750480815605679080000008464571443490282894_);}
	.st11{fill:url(#SVGID_00000124842202553024916060000014225451886930621878_);}
	.st12{fill:url(#SVGID_00000149355831788015833170000008955442453746158476_);}
	.st13{fill:url(#SVGID_00000137127205784638040260000003824498165717574036_);}
	.st14{fill:url(#SVGID_00000005957822624851999020000007755370460034008243_);}
	.st15{fill:url(#SVGID_00000031185250127822963180000001329756507694375818_);}
</style>
<g>
	<g>
		
			<linearGradient id="SVGID_1_" gradientUnits="userSpaceOnUse" x1="-499.5519" y1="875.78" x2="-498.6436" y2="875.78" gradientTransform="matrix(1080 0 0 -1080 539525.5625 946342.375)">
			<stop  offset="0" style="stop-color:#7D131E"/>
			<stop  offset="1" style="stop-color:#EE2E30"/>
		</linearGradient>
		<path class="st0" d="M500,990.5C229.54,990.5,9.5,770.46,9.5,500S229.54,9.5,500,9.5S990.5,229.54,990.5,500
			S770.46,990.5,500,990.5z M500,30.64C241.19,30.64,30.64,241.19,30.64,500S241.19,969.36,500,969.36S969.36,758.8,969.36,500
			S758.8,30.64,500,30.64z"/>
	</g>
	<g>
		
			<linearGradient id="SVGID_00000119801006325099449560000008709056420593209773_" gradientUnits="userSpaceOnUse" x1="-505.2571" y1="878.4522" x2="-504.3488" y2="878.4522" gradientTransform="matrix(102.4202 0 0 -102.4202 52201.9961 90471.2109)">
			<stop  offset="0" style="stop-color:#7D131E"/>
			<stop  offset="1" style="stop-color:#EE2E30"/>
		</linearGradient>
		<path style="fill:url(#SVGID_00000119801006325099449560000008709056420593209773_);" d="M500,546.52
			c-25.65,0-46.51-20.87-46.51-46.52c0-25.65,20.87-46.51,46.51-46.51c25.65,0,46.52,20.87,46.52,46.51
			C546.52,525.65,525.65,546.52,500,546.52z M500,474.63c-13.99,0-25.37,11.38-25.37,25.37c0,13.99,11.38,25.37,25.37,25.37
			c13.99,0,25.37-11.39,25.37-25.37C525.37,486.01,513.99,474.63,500,474.63z"/>
	</g>
	<g>
		<g>
			
				<linearGradient id="SVGID_00000044879865798228980130000007831352518551749254_" gradientUnits="userSpaceOnUse" x1="-516.2916" y1="883.3397" x2="-515.3833" y2="883.3397" gradientTransform="matrix(37.2341 0 0 -37.2341 19706.7441 33286.7734)">
				<stop  offset="0" style="stop-color:#7D131E"/>
				<stop  offset="1" style="stop-color:#EE2E30"/>
			</linearGradient>
			<path style="fill:url(#SVGID_00000044879865798228980130000007831352518551749254_);" d="M500,413.29
				c-9.32,0-16.91-7.59-16.91-16.91c0-9.32,7.59-16.91,16.91-16.91c9.33,0,16.91,7.59,16.91,16.91
				C516.91,405.7,509.32,413.29,500,413.29z M500,392.14c-2.33,0-4.23,1.9-4.23,4.23c0,2.33,1.9,4.23,4.23,4.23
				c2.33,0,4.23-1.9,4.23-4.23C504.23,394.04,502.33,392.14,500,392.14z"/>
		</g>
		<g>
			
				<linearGradient id="SVGID_00000155832931725111231620000001680822477231264643_" gradientUnits="userSpaceOnUse" x1="-516.2916" y1="883.9122" x2="-515.3833" y2="883.9122" gradientTransform="matrix(37.2341 0 0 -37.2365 19706.7441 33521.5508)">
				<stop  offset="0" style="stop-color:#7D131E"/>
				<stop  offset="1" style="stop-color:#EE2E30"/>
			</linearGradient>
			<path style="fill:url(#SVGID_00000155832931725111231620000001680822477231264643_);" d="M500,624.71
				c-9.32,0-16.91-7.59-16.91-16.91c0-9.33,7.59-16.91,16.91-16.91c9.33,0,16.91,7.59,16.91,16.91
				C516.91,617.12,509.32,624.71,500,624.71z M500,603.57c-2.33,0-4.23,1.9-4.23,4.23c0,2.33,1.9,4.23,4.23,4.23
				c2.33,0,4.23-1.89,4.23-4.23C504.23,605.46,502.33,603.57,500,603.57z"/>
		</g>
	</g>
	<g>
		<g>
			
				<linearGradient id="SVGID_00000103226895990330195970000015986888034720563643_" gradientUnits="userSpaceOnUse" x1="-516.5046" y1="883.4266" x2="-515.5963" y2="883.4266" gradientTransform="matrix(37.212 0 0 -37.2202 19778.0234 33308.6719)">
				<stop  offset="0" style="stop-color:#7D131E"/>
				<stop  offset="1" style="stop-color:#EE2E30"/>
			</linearGradient>
			<path style="fill:url(#SVGID_00000103226895990330195970000015986888034720563643_);" d="M574.75,444.24
				c-4.52,0-8.77-1.76-11.96-4.95c-6.59-6.6-6.59-17.32,0-23.91c3.2-3.19,7.44-4.95,11.96-4.95c4.52,0,8.77,1.76,11.96,4.95
				c6.59,6.59,6.59,17.32,0,23.91C583.51,442.49,579.27,444.24,574.75,444.24z M574.75,423.1c-1.11,0-2.21,0.45-2.99,1.25
				c-1.65,1.65-1.65,4.33,0,5.98c1.58,1.58,4.4,1.58,5.98,0c1.65-1.65,1.65-4.33,0-5.98C576.95,423.55,575.86,423.1,574.75,423.1z"
				/>
		</g>
		<g>
			
				<linearGradient id="SVGID_00000092448168093621831440000006071373973901888180_" gradientUnits="userSpaceOnUse" x1="-516.0971" y1="883.832" x2="-515.1887" y2="883.832" gradientTransform="matrix(37.2167 0 0 -37.2202 19615.7617 33473.2227)">
				<stop  offset="0" style="stop-color:#7D131E"/>
				<stop  offset="1" style="stop-color:#EE2E30"/>
			</linearGradient>
			<path style="fill:url(#SVGID_00000092448168093621831440000006071373973901888180_);" d="M425.25,593.74
				c-4.52,0-8.77-1.75-11.96-4.94c-6.59-6.6-6.59-17.32,0-23.92c3.19-3.19,7.44-4.95,11.96-4.95c4.52,0,8.77,1.75,11.96,4.94
				c6.6,6.59,6.6,17.33,0,23.92C434.02,591.98,429.77,593.74,425.25,593.74z M425.25,572.6c-1.11,0-2.2,0.45-2.99,1.25
				c-1.65,1.65-1.65,4.33,0,5.98c1.59,1.59,4.4,1.58,5.98,0c1.65-1.65,1.65-4.33,0-5.98C427.45,573.05,426.36,572.6,425.25,572.6z"
				/>
		</g>
	</g>
	<g>
		<g>
			
				<linearGradient id="SVGID_00000065069769067257082960000015350967955309963656_" gradientUnits="userSpaceOnUse" x1="-516.5793" y1="883.6257" x2="-515.671" y2="883.6257" gradientTransform="matrix(37.2318 0 0 -37.2365 19821.9551 33405.1719)">
				<stop  offset="0" style="stop-color:#7D131E"/>
				<stop  offset="1" style="stop-color:#EE2E30"/>
			</linearGradient>
			<path style="fill:url(#SVGID_00000065069769067257082960000015350967955309963656_);" d="M605.71,519
				c-9.32,0-16.91-7.59-16.91-16.91c0-9.32,7.59-16.91,16.91-16.91s16.91,7.59,16.91,16.91C622.62,511.41,615.03,519,605.71,519z
				 M605.71,497.86c-2.33,0-4.23,1.9-4.23,4.23c0,2.33,1.9,4.23,4.23,4.23c2.33,0,4.23-1.9,4.23-4.23
				C609.94,499.75,608.04,497.86,605.71,497.86z"/>
		</g>
		<g>
			
				<linearGradient id="SVGID_00000058559246873494099760000016091267654780244396_" gradientUnits="userSpaceOnUse" x1="-516.004" y1="883.6257" x2="-515.0957" y2="883.6257" gradientTransform="matrix(37.2365 0 0 -37.2365 19591.5352 33405.1719)">
				<stop  offset="0" style="stop-color:#7D131E"/>
				<stop  offset="1" style="stop-color:#EE2E30"/>
			</linearGradient>
			<path style="fill:url(#SVGID_00000058559246873494099760000016091267654780244396_);" d="M394.29,519
				c-9.32,0-16.91-7.59-16.91-16.91c0-9.32,7.59-16.91,16.91-16.91c9.33,0,16.91,7.59,16.91,16.91
				C411.2,511.41,403.61,519,394.29,519z M394.29,497.86c-2.33,0-4.23,1.9-4.23,4.23c0,2.33,1.9,4.23,4.23,4.23
				c2.33,0,4.23-1.9,4.23-4.23C398.52,499.75,396.62,497.86,394.29,497.86z"/>
		</g>
	</g>
	<g>
		<g>
			
				<linearGradient id="SVGID_00000175305549636808038260000007421229614792534663_" gradientUnits="userSpaceOnUse" x1="-516.096" y1="883.4261" x2="-515.1877" y2="883.4261" gradientTransform="matrix(37.219 0 0 -37.2225 19616.9492 33310.6914)">
				<stop  offset="0" style="stop-color:#7D131E"/>
				<stop  offset="1" style="stop-color:#EE2E30"/>
			</linearGradient>
			<path style="fill:url(#SVGID_00000175305549636808038260000007421229614792534663_);" d="M425.25,444.24
				c-4.52,0-8.77-1.76-11.96-4.95c-6.59-6.59-6.59-17.32,0-23.91c3.19-3.19,7.44-4.95,11.96-4.95c4.52,0,8.77,1.76,11.96,4.95
				c3.19,3.19,4.95,7.44,4.95,11.96c0,4.52-1.76,8.77-4.95,11.96C434.02,442.49,429.77,444.24,425.25,444.24z M425.25,423.1
				c-1.11,0-2.2,0.45-2.99,1.25c-0.79,0.79-1.24,1.88-1.24,2.99c0,1.11,0.45,2.2,1.24,2.99c1.58,1.58,4.4,1.58,5.99,0
				c1.65-1.65,1.65-4.33,0-5.98C427.45,423.56,426.36,423.1,425.25,423.1z"/>
		</g>
		<g>
			
				<linearGradient id="SVGID_00000105387987323884933480000008697494964037435520_" gradientUnits="userSpaceOnUse" x1="-516.5052" y1="883.832" x2="-515.5969" y2="883.832" gradientTransform="matrix(37.2108 0 0 -37.2202 19777.4219 33473.2227)">
				<stop  offset="0" style="stop-color:#7D131E"/>
				<stop  offset="1" style="stop-color:#EE2E30"/>
			</linearGradient>
			<path style="fill:url(#SVGID_00000105387987323884933480000008697494964037435520_);" d="M574.75,593.74
				c-4.52,0-8.77-1.75-11.95-4.94c-6.59-6.6-6.59-17.32-0.01-23.92c3.2-3.19,7.44-4.95,11.96-4.95c4.52,0,8.77,1.75,11.95,4.95
				c6.59,6.59,6.59,17.32,0,23.91C583.51,591.98,579.27,593.74,574.75,593.74z M574.75,572.6c-1.11,0-2.2,0.45-2.99,1.25
				c-1.65,1.65-1.65,4.33,0,5.98c1.58,1.59,4.4,1.58,5.98,0c1.65-1.66,1.65-4.34,0-5.98C576.95,573.05,575.85,572.6,574.75,572.6z"
				/>
		</g>
	</g>
	<g>
		
			<linearGradient id="SVGID_00000086662931593577220250000014989479244651968173_" gradientUnits="userSpaceOnUse" x1="-501.0889" y1="876.4005" x2="-500.1806" y2="876.4005" gradientTransform="matrix(302.3957 0 0 -302.3445 151889.7812 265176.6562)">
			<stop  offset="0" style="stop-color:#7D131E"/>
			<stop  offset="1" style="stop-color:#EE2E30"/>
		</linearGradient>
		<path style="fill:url(#SVGID_00000086662931593577220250000014989479244651968173_);" d="M500,339.08
			c-75.73,0-137.34-61.59-137.34-137.29c0-75.73,61.61-137.34,137.34-137.34c75.73,0,137.34,61.61,137.34,137.34
			C637.34,277.5,575.73,339.08,500,339.08z M500,85.6c-64.07,0-116.2,52.13-116.2,116.2c0,64.04,52.13,116.15,116.2,116.15
			s116.19-52.1,116.19-116.15C616.19,137.72,564.07,85.6,500,85.6z"/>
	</g>
	<g>
		
			<linearGradient id="SVGID_00000040552943921544107390000008285543876221534356_" gradientUnits="userSpaceOnUse" x1="-501.1751" y1="876.4501" x2="-500.2668" y2="876.4501" gradientTransform="matrix(302.3983 0 0 -302.4026 152175.3594 265391.7188)">
			<stop  offset="0" style="stop-color:#7D131E"/>
			<stop  offset="1" style="stop-color:#EE2E30"/>
		</linearGradient>
		<path style="fill:url(#SVGID_00000040552943921544107390000008285543876221534356_);" d="M758.37,488.22
			c-48.96,0-94.57-26.32-119.03-68.68c-18.34-31.76-23.21-68.76-13.73-104.2c9.49-35.43,32.2-65.05,63.97-83.38
			c20.89-12.05,44.6-18.42,68.57-18.42c48.95,0,94.57,26.31,119.05,68.65c37.84,65.58,15.28,149.73-50.29,187.59
			C806.05,481.85,782.35,488.22,758.37,488.22z M758.15,234.68c-20.27,0-40.33,5.39-58.01,15.59
			c-26.87,15.51-46.08,40.57-54.11,70.54c-8.03,29.98-3.9,61.28,11.61,88.16c20.7,35.84,59.29,58.11,100.72,58.11
			c20.27,0,40.31-5.4,57.97-15.6c55.48-32.03,74.56-103.22,42.55-158.71C838.18,256.95,799.58,234.68,758.15,234.68z"/>
	</g>
	<g>
		
			<linearGradient id="SVGID_00000101820879888480822880000001996434105490974351_" gradientUnits="userSpaceOnUse" x1="-501.1743" y1="876.5496" x2="-500.266" y2="876.5496" gradientTransform="matrix(302.5026 0 0 -302.4142 152227.3906 265730.1875)">
			<stop  offset="0" style="stop-color:#7D131E"/>
			<stop  offset="1" style="stop-color:#EE2E30"/>
		</linearGradient>
		<path style="fill:url(#SVGID_00000101820879888480822880000001996434105490974351_);" d="M758.14,786.45
			c-23.97,0-47.68-6.37-68.56-18.42c-31.76-18.34-54.48-47.95-63.97-83.38c-9.48-35.43-4.61-72.44,13.73-104.19
			c24.47-42.38,70.09-68.7,119.07-68.7c23.96,0,47.65,6.36,68.5,18.41c31.76,18.34,54.49,47.95,63.99,83.38
			c9.5,35.44,4.64,72.44-13.7,104.2C852.72,760.13,807.1,786.45,758.14,786.45z M758.41,532.9c-41.45,0-80.06,22.27-100.76,58.13
			c-15.51,26.87-19.64,58.18-11.61,88.15c8.03,29.98,27.25,55.03,54.12,70.54c17.67,10.19,37.73,15.58,57.99,15.58
			c41.43,0,80.04-22.28,100.75-58.14c15.51-26.87,19.63-58.17,11.59-88.15c-8.04-29.98-27.26-55.03-54.14-70.54
			C798.7,538.29,778.67,532.9,758.41,532.9z"/>
	</g>
	<g>
		
			<linearGradient id="SVGID_00000034776938875815055770000009110701968574416276_" gradientUnits="userSpaceOnUse" x1="-501.0889" y1="876.5996" x2="-500.1806" y2="876.5996" gradientTransform="matrix(302.3957 0 0 -302.3444 151889.7812 265833.25)">
			<stop  offset="0" style="stop-color:#7D131E"/>
			<stop  offset="1" style="stop-color:#EE2E30"/>
		</linearGradient>
		<path style="fill:url(#SVGID_00000034776938875815055770000009110701968574416276_);" d="M500,935.54
			c-75.73,0-137.34-61.61-137.34-137.34c0-75.7,61.61-137.29,137.34-137.29c75.73,0,137.34,61.59,137.34,137.29
			C637.34,873.93,575.73,935.54,500,935.54z M500,682.06c-64.07,0-116.2,52.1-116.2,116.15c0,64.07,52.13,116.19,116.2,116.19
			s116.19-52.12,116.19-116.19C616.19,734.16,564.07,682.06,500,682.06z"/>
	</g>
	<g>
		
			<linearGradient id="SVGID_00000057837823948563095690000015749078393182599855_" gradientUnits="userSpaceOnUse" x1="-501.002" y1="876.5496" x2="-500.0936" y2="876.5496" gradientTransform="matrix(302.5146 0 0 -302.4142 151664.7031 265730.1875)">
			<stop  offset="0" style="stop-color:#7D131E"/>
			<stop  offset="1" style="stop-color:#EE2E30"/>
		</linearGradient>
		<path style="fill:url(#SVGID_00000057837823948563095690000015749078393182599855_);" d="M241.83,786.45
			c-48.98,0-94.59-26.33-119.04-68.71c-18.34-31.76-23.21-68.77-13.72-104.19c9.5-35.44,32.23-65.05,64.01-83.39
			c20.85-12.04,44.54-18.4,68.5-18.4c48.98,0,94.61,26.32,119.07,68.7c18.34,31.76,23.21,68.77,13.72,104.19
			c-9.5,35.44-32.23,65.05-64.01,83.38C289.5,780.09,265.8,786.45,241.83,786.45z M241.59,532.9c-20.26,0-40.29,5.38-57.94,15.58
			c-26.89,15.51-46.12,40.57-54.16,70.54c-8.03,29.98-3.91,61.28,11.61,88.15c20.69,35.86,59.29,58.14,100.73,58.14
			c20.26,0,40.31-5.39,57.97-15.58c26.89-15.51,46.12-40.57,54.16-70.54c8.03-29.98,3.91-61.28-11.61-88.15
			C321.65,555.18,283.04,532.9,241.59,532.9z"/>
	</g>
	<g>
		
			<linearGradient id="SVGID_00000012441874268194613070000012868713919682510499_" gradientUnits="userSpaceOnUse" x1="-501.002" y1="876.4501" x2="-500.0936" y2="876.4501" gradientTransform="matrix(302.5099 0 0 -302.405 151662.4062 265393.7812)">
			<stop  offset="0" style="stop-color:#7D131E"/>
			<stop  offset="1" style="stop-color:#EE2E30"/>
		</linearGradient>
		<path style="fill:url(#SVGID_00000012441874268194613070000012868713919682510499_);" d="M241.63,488.22
			c-23.98,0-47.69-6.38-68.56-18.44c-31.77-18.33-54.51-47.94-64-83.36c-9.49-35.42-4.62-72.43,13.71-104.21
			c24.46-42.35,70.06-68.67,119.03-68.67c23.98,0,47.68,6.37,68.55,18.42c31.78,18.33,54.51,47.95,64.01,83.38
			c9.49,35.43,4.62,72.43-13.72,104.2C336.2,461.91,290.59,488.22,241.63,488.22z M241.82,234.68c-41.44,0-80.03,22.26-100.72,58.09
			c-15.51,26.89-19.64,58.21-11.61,88.17c8.03,29.97,27.26,55.01,54.16,70.53c17.67,10.22,37.71,15.61,57.98,15.61
			c41.43,0,80.02-22.27,100.72-58.11c15.52-26.87,19.64-58.18,11.61-88.15c-8.03-29.98-27.27-55.03-54.16-70.54
			C282.14,240.07,262.09,234.68,241.82,234.68z"/>
	</g>
</g>
</svg>
